<?xml version="1.0" encoding="UTF-8" standalone="no"?>
<!-- Created with Inkscape (http://www.inkscape.org/) -->

<svg
   width="300mm"
   height="300mm"
   viewBox="0 0 300 300"
   version="1.1"
   id="svg1"
   inkscape:version="1.4.2 (f4327f4, 2025-05-13)"
   sodipodi:docname="irregular.svg"
   xmlns:inkscape="http://www.inkscape.org/namespaces/inkscape"
   xmlns:sodipodi="http://sodipodi.sourceforge.net/DTD/sodipodi-0.dtd"
   xmlns="http://www.w3.org/2000/svg"
   xmlns:svg="http://www.w3.org/2000/svg">
  <sodipodi:namedview
     id="namedview1"
     pagecolor="#ffffff"
     bordercolor="#000000"
     borderopacity="0.25"
     inkscape:showpageshadow="2"
     inkscape:pageopacity="0.0"
     inkscape:pagecheckerboard="0"
     inkscape:deskcolor="#d1d1d1"
     inkscape:document-units="mm"
     inkscape:zoom="0.71891835"
     inkscape:cx="397.12437"
     inkscape:cy="561.25984"
     inkscape:window-width="1920"
     inkscape:window-height="1009"
     inkscape:window-x="-8"
     inkscape:window-y="-8"
     inkscape:window-maximized="1"
     inkscape:current-layer="svg1" />
  <defs
     id="defs1" />
  <path
     style="fill:#528aff;stroke:#dac7ff;stroke-width:0.264999"
     d="m 216.40148,100.84015 c 0,0 -6.2565,-19.137548 14.35316,-8.832715 20.60967,10.304835 3.6803,6.256504 16.19331,21.713755 12.51301,15.45725 30.17843,33.12267 15.08922,36.06691 -15.08922,2.94424 -1.47212,14.35316 -13.24907,29.07435 -11.77695,14.72119 -49.68401,0.73606 -39.74721,-9.9368 9.9368,-10.67286 11.04089,-28.33829 0.73606,-33.12268 -10.30483,-4.78438 -6.25651,-20.60966 0.73606,-27.2342 6.99256,-6.62453 5.88847,-7.72862 5.88847,-7.72862 z"
     id="path1"
     inkscape:label="Museros" />
  <path
     style="fill:#528aff;stroke:#dac7ff;stroke-width:0.264999"
     d="m 233.69888,89.431227 c 0,0 -13.98513,-10.304833 -17.2974,-2.208181 -3.31226,8.096655 0.36803,12.144983 -3.31226,16.561344 -3.6803,4.41635 -4.41636,4.04832 -7.3606,7.72862 -2.94424,3.6803 -8.46468,7.72862 -4.78438,14.35316 3.68029,6.62454 2.20817,7.72862 4.04832,10.30483 1.84015,2.57621 6.99257,3.31227 8.09666,8.09666 1.10409,4.78438 3.31226,2.5762 2.57621,7.72862 -0.73606,5.15242 -2.57621,12.14498 -7.72863,14.35316 -5.15242,2.20818 -1.47212,21.34573 -22.08179,8.46468 -20.60966,-12.88104 -31.65055,-9.9368 -28.33828,-29.8104 3.31226,-19.87361 -12.14499,-35.33086 5.15241,-46.739781 17.2974,-11.408921 8.83272,-45.267657 30.9145,-36.802972 22.08179,8.464682 43.05948,-5.152417 40.48327,11.40892 -2.57621,16.56134 -0.36803,16.56134 -0.36803,16.56134 z"
     id="path2"
     inkscape:label="Foios" />
  <path
     style="fill:#528aff;stroke:#dac7ff;stroke-width:0.264999"
     d="m 180.33457,51.524164 c 25.02602,10.304833 17.2974,9.936803 25.39405,10.304833 8.09666,0.368027 29.07435,-2.208181 29.07435,-1.840151 0,0.36803 32.38661,10.672863 21.34573,-9.200742 -11.0409,-19.873606 2.94423,-31.282528 -23.92194,-30.178439 -26.86617,1.104089 -30.17844,-2.944238 -37.53903,-8.464684 -7.36059,-5.5204457 -26.13011,-9.9368026 -30.9145,2.208179 -4.78438,12.144982 -24.28996,13.98513 -33.85873,15.457248 -9.56878,1.47212 -51.892197,17.665427 -3.31227,23.921934 48.57992,6.256504 53.73234,-2.208178 53.73234,-2.208178 z"
     id="path3"
     inkscape:label="Pobla de Farnals" />
  <path
     style="fill:#528aff;stroke:#dac7ff;stroke-width:0.264999"
     d="m 99.736059,67.349441 c 0,0 -18.769517,-18.033458 6.992561,-12.513011 25.76209,5.520446 64.40521,4.416359 64.40521,4.416359 0,0 14.72118,-9.568776 10.30483,-2.208181 -4.41636,7.360597 -10.67286,18.769517 -9.56877,20.977695 1.10409,2.208179 -2.94424,16.56134 -9.93681,12.144981 -6.99256,-4.416356 -12.88104,24.289966 -12.88104,24.289966 0,0 5.52045,21.71375 5.15242,26.49814 -0.36803,4.78438 2.94424,33.12267 -11.04089,16.56134 -13.98513,-16.56134 -23.55391,-9.93681 -27.97026,-30.9145 -4.41636,-20.9777 2.20818,-6.99257 1.10409,-26.13011 -1.10409,-19.137548 -4.04833,-23.553904 -10.30484,-26.498143 -6.256501,-2.944238 -6.256501,-6.624536 -6.256501,-6.624536 z"
     id="path4"
     inkscape:label="Puig" />
  <path
     style="fill:#528aff;stroke:#dac7ff;stroke-width:0.264999"
     d="m 111.14498,144.26766 c 0,0 8.09665,-1.10409 21.71375,11.04089 13.6171,12.14498 0,7.72862 19.50558,12.14498 19.50558,4.41636 8.46468,-1.47212 23.92193,6.2565 15.45725,7.72863 11.40893,10.67287 32.01859,12.88105 20.60966,2.20817 20.97769,2.20817 33.49071,3.68029 12.51301,1.47212 16.92936,-5.88847 15.82527,12.88104 -1.10408,18.76952 11.04089,47.10781 -14.72118,34.5948 -25.76209,-12.51301 -15.82528,-29.44238 -43.42751,-32.38662 -27.60223,-2.94424 -31.28253,30.17844 -50.05205,12.88104 -18.76951,-17.29739 -52.260219,-7.36059 -47.47583,-34.22676 4.78438,-26.86617 9.20074,-39.74721 9.20074,-39.74721 z"
     id="path5"
     inkscape:label="Moncada" />
  <path
     style="fill:#528aff;stroke:#dac7ff;stroke-width:0.264999"
     d="m 165.24535,231.4907 c 25.02602,-20.60966 36.06691,-19.50557 36.06691,-19.50557 0,0 29.81041,8.09665 18.76952,21.71375 -11.04089,13.6171 38.64312,10.30483 38.64312,10.30483 0,0 29.81042,-6.2565 20.24163,8.09666 -9.56876,14.35317 -1.10408,37.90706 -24.28995,25.39404 -23.18588,-12.51299 -51.52417,-21.71374 -57.41264,-11.40891 -5.88848,10.30483 -9.56877,16.56133 -23.92194,11.40891 -14.35315,-5.15241 -56.67657,-4.78438 -41.95538,-19.50557 14.72118,-14.72118 6.99256,-17.29739 16.56133,-22.81784 9.56878,-5.52045 17.2974,-3.6803 17.2974,-3.6803 z"
     id="path6"
     inkscape:label="Sagunto" />
  <path
     style="fill:#528aff;stroke:#dac7ff;stroke-width:0.264999"
     d="m 110.04089,263.87732 c 3.31227,-1.47212 5.88848,5.52045 12.51301,-2.20818 6.62454,-7.72862 13.6171,-9.56877 13.98513,-16.92937 0.36803,-7.36059 5.88848,-11.40892 9.9368,-12.51301 4.04833,-1.10409 10.30484,-3.31227 -2.94423,-10.30483 -13.24907,-6.99256 -40.8513,-15.08922 -40.8513,-15.08922 0,0 -6.256509,-1.10409 -5.888479,-9.9368 0.36803,-8.83271 6.992569,-38.27509 6.992569,-38.27509 0,0 9.56877,-22.44982 0,-13.24908 -9.568777,9.20075 -12.513015,7.72863 -17.665432,22.81785 -5.152416,15.08922 -13.985131,14.35316 -5.520446,38.27509 8.464685,23.92193 -19.137545,37.17101 1.47212,44.16357 20.609668,6.99256 27.970258,13.24907 27.970258,13.24907 z"
     id="path7"
     inkscape:label="Massamagrell" />
  <path
     style="fill:#528aff;stroke:#dac7ff;stroke-width:0.264999"
     d="m 103.78439,112.6171 c 2.5762,8.09665 13.98512,25.76208 9.9368,26.13011 -4.04833,0.36803 -9.9368,1.47212 -19.873607,6.25651 -9.936803,4.78438 -19.873606,37.53903 -19.873606,37.53903 0,0 -5.520446,2.20818 -4.048328,6.99256 1.47212,4.78439 8.464685,14.35316 6.992567,20.24164 -1.472121,5.88848 -5.152417,46.37175 -11.040893,43.42751 -5.888477,-2.94424 -33.858737,6.99256 -29.442378,-11.40892 4.416356,-18.40149 -5.888477,-36.43495 -2.944238,-53.36432 2.944238,-16.92936 -6.624537,-14.35316 16.193306,-35.33085 22.817844,-20.97769 20.977696,-26.13011 35.698885,-32.01859 14.721192,-5.88847 18.401492,-8.46468 18.401492,-8.46468 z"
     id="path8"
     inkscape:label="Puzol" />
  <path
     style="fill:#528aff;stroke:#dac7ff;stroke-width:0.264999"
     d="m 35.330855,159.35688 c 31.282528,-34.22677 53.364311,-45.63569 53.364311,-45.63569 0,0 23.921934,-4.78439 20.241634,-12.88104 C 105.2565,92.743492 118.13754,80.230482 96.791821,78.390334 75.446095,76.550186 86.118958,58.148698 86.118958,58.148698 c 0,0 23.553902,-39.747211 -5.520446,-18.401487 C 51.524164,61.092936 49.315983,50.788104 43.795539,74.710035 38.275093,98.631969 36.066915,120.34572 36.066915,120.34572 Z"
     id="path9"
     inkscape:label="Rafelbunyol" />
</svg>
